# xmcd
#
# Track frame offsets: 
#        150
#        16739
#        36274
#        53606
#        71116
#        88086
#        105647
#        121629
#        135945
#        154872
#        170778
#        187563
#        205204
#        224572
#        237461
#        253846
#        270220
#        289984
#        305612
#        320486
#        332507
#
# Disc length: 4631 seconds
#
# Revision: 0
# Processed by: cddbd v1.5.2PL0 Copyright (c) Steve Scherf et al.
# Submitted via: ExactAudioCopyFreeDBPlugin 1.0
#
DISCID=2a121515
DTITLE=Kenny Rogers - Essentials
DYEAR=2014
DGENRE=Country
TTITLE0=Lucille
TTITLE1=Coward of th county
TTITLE2=We've got tonight
TTITLE3=Lady
TTITLE4=Desparado
TTITLE5=Lay down beside me
TTITLE6=Just the way you are
TTITLE7=Daytime friends
TTITLE8=She believes in me
TTITLE9=The gambler
TTITLE10=San Francisco mabel joy
TTITLE11=All my life
TTITLE12=Sweet music man
TTITLE13=Love or something like it
TTITLE14=Love will turn you around
TTITLE15=You decorated my life
TTITLE16=Through the years
TTITLE17=I don't need you
TTITLE18=Share your love with me
TTITLE19=Blaze of glory
TTITLE20=A love song
EXTD=
EXTT0=
EXTT1=
EXTT2=
EXTT3=
EXTT4=
EXTT5=
EXTT6=
EXTT7=
EXTT8=
EXTT9=
EXTT10=
EXTT11=
EXTT12=
EXTT13=
EXTT14=
EXTT15=
EXTT16=
EXTT17=
EXTT18=
EXTT19=
EXTT20=
PLAYORDER=
